<mxfile host="app.diagrams.net" agent="Mozilla/5.0 (Windows NT 10.0; Win64; x64) AppleWebKit/537.36 (KHTML, like Gecko) Chrome/129.0.0.0 Safari/537.36" version="24.7.17">
  <diagram name="Page-1" id="2Q2Ika92WkwCNMDazNxx">
    <mxGraphModel dx="1245" dy="1124" grid="1" gridSize="10" guides="1" tooltips="1" connect="1" arrows="1" fold="1" page="1" pageScale="1" pageWidth="850" pageHeight="1100" math="0" shadow="0">
      <root>
        <mxCell id="0" />
        <mxCell id="1" parent="0" />
        <mxCell id="aeNWAtpM410Trp2lLNnu-3" value="" style="edgeStyle=orthogonalEdgeStyle;rounded=0;orthogonalLoop=1;jettySize=auto;html=1;" edge="1" parent="1" source="aeNWAtpM410Trp2lLNnu-1" target="aeNWAtpM410Trp2lLNnu-2">
          <mxGeometry relative="1" as="geometry" />
        </mxCell>
        <mxCell id="aeNWAtpM410Trp2lLNnu-4" value="Autocomplete Input" style="edgeLabel;html=1;align=center;verticalAlign=middle;resizable=0;points=[];" vertex="1" connectable="0" parent="aeNWAtpM410Trp2lLNnu-3">
          <mxGeometry x="-0.3273" y="1" relative="1" as="geometry">
            <mxPoint as="offset" />
          </mxGeometry>
        </mxCell>
        <mxCell id="aeNWAtpM410Trp2lLNnu-1" value="User" style="rounded=0;whiteSpace=wrap;html=1;" vertex="1" parent="1">
          <mxGeometry x="640" y="270" width="120" height="60" as="geometry" />
        </mxCell>
        <mxCell id="aeNWAtpM410Trp2lLNnu-2" value="Frontend" style="rounded=0;whiteSpace=wrap;html=1;" vertex="1" parent="1">
          <mxGeometry x="640" y="450" width="120" height="60" as="geometry" />
        </mxCell>
        <mxCell id="aeNWAtpM410Trp2lLNnu-16" value="" style="edgeStyle=orthogonalEdgeStyle;rounded=0;orthogonalLoop=1;jettySize=auto;html=1;" edge="1" parent="1" source="aeNWAtpM410Trp2lLNnu-5" target="aeNWAtpM410Trp2lLNnu-8">
          <mxGeometry relative="1" as="geometry" />
        </mxCell>
        <mxCell id="aeNWAtpM410Trp2lLNnu-5" value="Backend" style="rounded=0;whiteSpace=wrap;html=1;" vertex="1" parent="1">
          <mxGeometry x="180" y="450" width="120" height="60" as="geometry" />
        </mxCell>
        <mxCell id="aeNWAtpM410Trp2lLNnu-6" value="" style="endArrow=classic;startArrow=classic;html=1;rounded=0;entryX=0;entryY=0.5;entryDx=0;entryDy=0;" edge="1" parent="1" source="aeNWAtpM410Trp2lLNnu-5" target="aeNWAtpM410Trp2lLNnu-2">
          <mxGeometry width="50" height="50" relative="1" as="geometry">
            <mxPoint x="400" y="600" as="sourcePoint" />
            <mxPoint x="450" y="550" as="targetPoint" />
          </mxGeometry>
        </mxCell>
        <mxCell id="aeNWAtpM410Trp2lLNnu-7" value="Two way communication.&lt;div&gt;HTTP Requests and API Responses&lt;/div&gt;" style="edgeLabel;html=1;align=center;verticalAlign=middle;resizable=0;points=[];" vertex="1" connectable="0" parent="aeNWAtpM410Trp2lLNnu-6">
          <mxGeometry x="-0.0364" y="-2" relative="1" as="geometry">
            <mxPoint as="offset" />
          </mxGeometry>
        </mxCell>
        <mxCell id="aeNWAtpM410Trp2lLNnu-11" value="Database Queries" style="edgeStyle=orthogonalEdgeStyle;rounded=0;orthogonalLoop=1;jettySize=auto;html=1;" edge="1" parent="1" source="aeNWAtpM410Trp2lLNnu-8" target="aeNWAtpM410Trp2lLNnu-5">
          <mxGeometry relative="1" as="geometry" />
        </mxCell>
        <mxCell id="aeNWAtpM410Trp2lLNnu-8" value="DataBase" style="rounded=0;whiteSpace=wrap;html=1;" vertex="1" parent="1">
          <mxGeometry x="180" y="580" width="120" height="60" as="geometry" />
        </mxCell>
        <mxCell id="aeNWAtpM410Trp2lLNnu-10" value="" style="edgeStyle=orthogonalEdgeStyle;rounded=0;orthogonalLoop=1;jettySize=auto;html=1;" edge="1" parent="1" source="aeNWAtpM410Trp2lLNnu-9" target="aeNWAtpM410Trp2lLNnu-8">
          <mxGeometry relative="1" as="geometry" />
        </mxCell>
        <mxCell id="aeNWAtpM410Trp2lLNnu-12" value="Processing" style="edgeLabel;html=1;align=center;verticalAlign=middle;resizable=0;points=[];" vertex="1" connectable="0" parent="aeNWAtpM410Trp2lLNnu-10">
          <mxGeometry x="0.175" relative="1" as="geometry">
            <mxPoint as="offset" />
          </mxGeometry>
        </mxCell>
        <mxCell id="aeNWAtpM410Trp2lLNnu-9" value="Raw Data" style="rounded=0;whiteSpace=wrap;html=1;" vertex="1" parent="1">
          <mxGeometry x="180" y="720" width="120" height="60" as="geometry" />
        </mxCell>
      </root>
    </mxGraphModel>
  </diagram>
</mxfile>
